<svg width="248" height="268" viewBox="0 0 248 268" fill="none" xmlns="http://www.w3.org/2000/svg">
<path d="M191.608 23.328C194.426 22.8737 197.844 29.441 199.273 31.6706C210.996 50.0798 219.18 70.5151 223.406 91.9269C225.488 102.657 226.638 113.207 227.223 124.116C227.491 129.112 227.762 134.059 227.629 139.067C227.021 161.896 221.315 188.446 211.994 209.273C208.822 216.361 204.858 223.279 200.518 229.702C199.069 231.847 195.005 238.202 192.648 238.601C184.837 239.924 158.095 224.274 151.196 219.191C148.763 217.398 146.562 215.2 144.255 213.242C121.641 194.044 110.622 173.11 106.269 143.953C108.023 147.219 110.065 150.04 112.132 153.097C114.589 156.478 116.71 160.77 119.45 163.881C128.916 174.633 140.382 185.316 152.857 192.328C157.288 194.849 162.039 197.188 166.778 199.07C169.088 199.987 188.995 205.774 190.519 205.21C191.515 204.84 192.339 202.936 192.782 202.029C195.717 196.02 197.553 189.804 199.434 183.413C208.691 151.478 209.169 117.638 200.817 85.4551C198.121 74.9023 194.339 66.8663 190.901 56.9048C181.859 57.883 159.84 66.4313 151.945 71.0675C137.003 79.8422 121.694 95.5362 112.451 110.158C110.145 113.806 107.93 116.835 106.26 120.884C106.244 112.466 109.711 100.502 112.993 92.8968C113.813 90.9952 114.769 87.0046 115.502 85.4396C117.549 81.0715 121.295 73.4833 124.27 69.9357C126.747 66.9827 130.541 61.2608 132.848 58.8663C140.824 50.5881 149.94 41.7766 160.107 36.3475C163.581 34.4923 168.7 32.1206 172.283 30.4352C177.783 27.8484 185.767 24.2044 191.608 23.328Z" fill="#E21500"/>
<path d="M71.8505 65.0636C71.8631 65.0789 72.3233 65.6332 72.3235 65.6342C73.555 72.863 74.5458 80.2148 76.3474 87.3301C76.6511 88.5294 76.8488 88.9939 77.0885 89.813C78.158 93.4657 79.3494 96.9691 80.5753 100.561C81.5121 103.078 82.1614 105.917 83.2754 108.353C85.2469 112.662 87.5348 117.048 89.8201 121.196C92.0971 125.329 94.9639 129.157 97.2887 133.256C87.0943 144.958 81.0793 161.504 76.9653 176.286C75.6582 180.982 74.719 185.699 73.8757 190.5C73.5243 192.5 73.3487 194.574 72.9006 196.55C72.7749 197.105 72.6461 197.726 72.2298 198.14C72.1038 198.265 71.9147 198.2 71.7456 198.194C69.9578 196.515 67.7558 193.342 66.154 191.336C63.9782 188.611 61.7859 185.944 59.5682 183.254C58.4604 182.036 56.8853 179.806 55.6886 178.392C48.7 170.136 42.0997 161.412 35.3197 152.97C32.1814 149.095 29.0228 145.235 25.8438 141.392C23.8821 139.014 20.7903 135.426 19.2882 132.849C20.3294 129.952 26.9424 122.169 29.2199 119.285L45.3072 98.9866C47.1246 96.6758 48.8926 93.7236 50.8194 91.1896C57.5956 82.295 64.6086 73.5833 71.8505 65.0636Z" fill="#D4D4D4"/>
<path d="M134.495 8.9881C135.499 8.96294 136.157 9.08086 136.964 9.68788C140.112 12.0549 153.779 28.3895 154.139 31.6285C154.214 32.3047 149.643 35.0223 148.851 35.5692C137.95 43.0985 128.682 52.4722 120.78 63.0637C111.927 74.93 106.059 89.2919 102.274 103.545C101.426 106.857 100.785 110.219 100.354 113.611C100.128 115.477 99.8842 120.707 98.836 122.044C95.3848 118.727 88.3425 102.263 86.3202 97.4389C83.2936 90.2183 81.0529 79.9016 80.2413 72.2165C79.7083 67.1696 77.7347 58.4244 79.5671 53.912C80.9369 50.5383 90.9354 39.0186 93.6309 36.6726C105.863 26.026 119.327 14.9866 134.495 8.9881Z" fill="#D4D4D4"/>
<path d="M98.4555 143.208C98.9501 143.401 99.4894 143.564 99.6141 144.214C100.048 146.475 100.167 148.927 100.531 151.244C101.268 155.93 102.363 160.553 103.806 165.071C110.334 186.107 122.818 204.8 139.748 218.889C144.44 222.868 150.75 226.812 155.22 230.72C154.072 233.3 151.974 234.946 150.185 237.098L140.152 249.209C139.267 250.255 138.185 251.768 137.201 252.648C137.078 252.757 136.542 252.604 136.299 252.56C131.627 250.507 123.173 245.164 118.963 242.122C116.661 240.46 114.497 238.611 112.206 236.934C110.258 235.509 108.196 234.243 106.241 232.823C100.963 228.985 79.9434 211.172 79.08 205.395C78.5908 202.121 79.7705 197.969 80.2297 194.71C80.7686 190.887 80.9834 187.009 81.763 183.224C84.2394 171.197 91.1834 153.134 98.4555 143.208Z" fill="#D4D4D4"/>
<path d="M152.056 78.5107C153.75 77.3261 155.871 76.313 157.696 75.3048C164.275 71.6691 169.138 69.3749 176.521 67.6619C176.895 69.2605 177.941 72.0169 178.498 73.6594C179.544 76.6836 180.448 79.755 181.207 82.8635C182.796 89.4728 185.201 99.7687 186.286 106.35C189.513 125.91 189.186 145.891 185.322 165.335C183.818 172.882 181.734 178.713 180.121 185.663L180.024 185.878C179.116 187.882 178.217 193.467 176.398 194.712C173.28 195.209 155.864 186.373 153.121 183.442C152.614 182.9 154.678 179.924 154.978 179.375C173.195 146.008 170.929 110.919 152.056 78.5107Z" fill="#D4D4D4"/>
<path d="M123.417 157.589C119.899 152.25 116.08 147.842 113.022 142.033C111.592 139.317 108.308 136.196 106.649 133.15C106.619 130.75 112.346 123.773 113.614 121.347C116.331 116.149 119.661 111.64 123.061 106.88C123.35 107.222 123.624 107.576 123.97 107.858C122.993 111.103 121.345 116.09 120.667 119.282C118.095 131.715 119.243 144.631 123.967 156.416L123.417 157.589Z" fill="#E21500"/>
<path d="M126.431 102.147C125.762 104.023 124.942 106.114 123.97 107.858C123.624 107.576 123.35 107.222 123.061 106.88C124.069 105.418 125.328 103.482 126.431 102.147Z" fill="#BC1302" fill-opacity="0.988235"/>
<path d="M123.967 156.416C124.718 158.068 125.3 159.436 125.895 161.156C124.909 159.89 124.278 158.945 123.417 157.589L123.967 156.416Z" fill="#BC1302" fill-opacity="0.956863"/>
</svg>
